<svg xmlns="http://www.w3.org/2000/svg" xmlns:gadfly="http://www.gadflyjl.org/ns" xmlns:xlink="http://www.w3.org/1999/xlink" width="250mm" height="150mm" fill="#000" stroke="none" stroke-width=".3" font-size="3.88" version="1.2" viewBox="0 0 250 150"><defs><marker id="arrow" markerHeight="7" markerUnits="strokeWidth" markerWidth="15" orient="auto" refX="5" refY="3.5"><path fill="context-stroke" stroke="context-stroke" d="M0,0 L15,3.5 L0,7 z"/></marker></defs><g id="img-b41a8741-1" fill="#222831" stroke="#000" stroke-opacity="0"><g><path d="M-125,-75 L125,-75 125,75 -125,75 z" class="primitive" transform="translate(125,75)"/></g></g><g id="img-b41a8741-2" class="plotroot yscalable"><g id="img-b41a8741-3" fill="#A1A1A1" stroke="#000" stroke-opacity="0" font-family="'PT Sans','Helvetica Neue','Helvetica',sans-serif" font-size="3.88"><g><g class="primitive"><text dy=".6em" text-anchor="middle" transform="translate(131.41,138.39)">Countries</text></g></g></g><g id="img-b41a8741-4" fill="#A1A1A1" class="guide xlabels" font-family="'PT Sans Caption','Helvetica Neue','Helvetica',sans-serif" font-size="2.82"><g><g class="primitive"><text dy=".35em" text-anchor="end" transform="translate(19.78,108.85) rotate(-90,0, 0)">I do not wish t...</text></g></g><g><g class="primitive"><text dy=".35em" text-anchor="end" transform="translate(23.7,108.85) rotate(-90,0, 0)">Czech Republic</text></g></g><g><g class="primitive"><text dy=".35em" text-anchor="end" transform="translate(27.62,108.85) rotate(-90,0, 0)">Romania</text></g></g><g><g class="primitive"><text dy=".35em" text-anchor="end" transform="translate(31.53,108.85) rotate(-90,0, 0)">Belgium</text></g></g><g><g class="primitive"><text dy=".35em" text-anchor="end" transform="translate(35.45,108.85) rotate(-90,0, 0)">Ireland</text></g></g><g><g class="primitive"><text dy=".35em" text-anchor="end" transform="translate(39.37,108.85) rotate(-90,0, 0)">Ecuador</text></g></g><g><g class="primitive"><text dy=".35em" text-anchor="end" transform="translate(43.29,108.85) rotate(-90,0, 0)">Zimbabwe</text></g></g><g><g class="primitive"><text dy=".35em" text-anchor="end" transform="translate(47.2,108.85) rotate(-90,0, 0)">Hong Kong (S.A....</text></g></g><g><g class="primitive"><text dy=".35em" text-anchor="end" transform="translate(51.12,108.85) rotate(-90,0, 0)">Algeria</text></g></g><g><g class="primitive"><text dy=".35em" text-anchor="end" transform="translate(55.04,108.85) rotate(-90,0, 0)">Cameroon</text></g></g><g><g class="primitive"><text dy=".35em" text-anchor="end" transform="translate(58.95,108.85) rotate(-90,0, 0)">Singapore</text></g></g><g><g class="primitive"><text dy=".35em" text-anchor="end" transform="translate(62.87,108.85) rotate(-90,0, 0)">Malaysia</text></g></g><g><g class="primitive"><text dy=".35em" text-anchor="end" transform="translate(66.79,108.85) rotate(-90,0, 0)">Nepal</text></g></g><g><g class="primitive"><text dy=".35em" text-anchor="end" transform="translate(70.7,108.85) rotate(-90,0, 0)">Sri Lanka</text></g></g><g><g class="primitive"><text dy=".35em" text-anchor="end" transform="translate(74.62,108.85) rotate(-90,0, 0)">Ukraine</text></g></g><g><g class="primitive"><text dy=".35em" text-anchor="end" transform="translate(78.54,108.85) rotate(-90,0, 0)">Saudi Arabia</text></g></g><g><g class="primitive"><text dy=".35em" text-anchor="end" transform="translate(82.45,108.85) rotate(-90,0, 0)">Portugal</text></g></g><g><g class="primitive"><text dy=".35em" text-anchor="end" transform="translate(86.37,108.85) rotate(-90,0, 0)">United Arab Emi...</text></g></g><g><g class="primitive"><text dy=".35em" text-anchor="end" transform="translate(90.29,108.85) rotate(-90,0, 0)">Ethiopia</text></g></g><g><g class="primitive"><text dy=".35em" text-anchor="end" transform="translate(94.2,108.85) rotate(-90,0, 0)">Germany</text></g></g><g><g class="primitive"><text dy=".35em" text-anchor="end" transform="translate(98.12,108.85) rotate(-90,0, 0)">Israel</text></g></g><g><g class="primitive"><text dy=".35em" text-anchor="end" transform="translate(102.04,108.85) rotate(-90,0, 0)">Ghana</text></g></g><g><g class="primitive"><text dy=".35em" text-anchor="end" transform="translate(105.95,108.85) rotate(-90,0, 0)">Netherlands</text></g></g><g><g class="primitive"><text dy=".35em" text-anchor="end" transform="translate(109.87,108.85) rotate(-90,0, 0)">Philippines</text></g></g><g><g class="primitive"><text dy=".35em" text-anchor="end" transform="translate(113.79,108.85) rotate(-90,0, 0)">South Africa</text></g></g><g><g class="primitive"><text dy=".35em" text-anchor="end" transform="translate(117.7,108.85) rotate(-90,0, 0)">Poland</text></g></g><g><g class="primitive"><text dy=".35em" text-anchor="end" transform="translate(121.62,108.85) rotate(-90,0, 0)">Chile</text></g></g><g><g class="primitive"><text dy=".35em" text-anchor="end" transform="translate(125.54,108.85) rotate(-90,0, 0)">Iran, Islamic R...</text></g></g><g><g class="primitive"><text dy=".35em" text-anchor="end" transform="translate(129.45,108.85) rotate(-90,0, 0)">Peru</text></g></g><g><g class="primitive"><text dy=".35em" text-anchor="end" transform="translate(133.37,108.85) rotate(-90,0, 0)">Tunisia</text></g></g><g><g class="primitive"><text dy=".35em" text-anchor="end" transform="translate(137.29,108.85) rotate(-90,0, 0)">Thailand</text></g></g><g><g class="primitive"><text dy=".35em" text-anchor="end" transform="translate(141.2,108.85) rotate(-90,0, 0)">Australia</text></g></g><g><g class="primitive"><text dy=".35em" text-anchor="end" transform="translate(145.12,108.85) rotate(-90,0, 0)">Morocco</text></g></g><g><g class="primitive"><text dy=".35em" text-anchor="end" transform="translate(149.04,108.85) rotate(-90,0, 0)">Italy</text></g></g><g><g class="primitive"><text dy=".35em" text-anchor="end" transform="translate(152.96,108.85) rotate(-90,0, 0)">Kenya</text></g></g><g><g class="primitive"><text dy=".35em" text-anchor="end" transform="translate(156.87,108.85) rotate(-90,0, 0)">Argentina</text></g></g><g><g class="primitive"><text dy=".35em" text-anchor="end" transform="translate(160.79,108.85) rotate(-90,0, 0)">Viet Nam</text></g></g><g><g class="primitive"><text dy=".35em" text-anchor="end" transform="translate(164.71,108.85) rotate(-90,0, 0)">Taiwan</text></g></g><g><g class="primitive"><text dy=".35em" text-anchor="end" transform="translate(168.62,108.85) rotate(-90,0, 0)">Bangladesh</text></g></g><g><g class="primitive"><text dy=".35em" text-anchor="end" transform="translate(172.54,108.85) rotate(-90,0, 0)">Colombia</text></g></g><g><g class="primitive"><text dy=".35em" text-anchor="end" transform="translate(176.46,108.85) rotate(-90,0, 0)">Canada</text></g></g><g><g class="primitive"><text dy=".35em" text-anchor="end" transform="translate(180.37,108.85) rotate(-90,0, 0)">Spain</text></g></g><g><g class="primitive"><text dy=".35em" text-anchor="end" transform="translate(184.29,108.85) rotate(-90,0, 0)">United Kingdom ...</text></g></g><g><g class="primitive"><text dy=".35em" text-anchor="end" transform="translate(188.21,108.85) rotate(-90,0, 0)">France</text></g></g><g><g class="primitive"><text dy=".35em" text-anchor="end" transform="translate(192.12,108.85) rotate(-90,0, 0)">South Korea</text></g></g><g><g class="primitive"><text dy=".35em" text-anchor="end" transform="translate(196.04,108.85) rotate(-90,0, 0)">Russia</text></g></g><g><g class="primitive"><text dy=".35em" text-anchor="end" transform="translate(199.96,108.85) rotate(-90,0, 0)">Turkey</text></g></g><g><g class="primitive"><text dy=".35em" text-anchor="end" transform="translate(203.87,108.85) rotate(-90,0, 0)">Indonesia</text></g></g><g><g class="primitive"><text dy=".35em" text-anchor="end" transform="translate(207.79,108.85) rotate(-90,0, 0)">Mexico</text></g></g><g><g class="primitive"><text dy=".35em" text-anchor="end" transform="translate(211.71,108.85) rotate(-90,0, 0)">Egypt</text></g></g><g><g class="primitive"><text dy=".35em" text-anchor="end" transform="translate(215.62,108.85) rotate(-90,0, 0)">China</text></g></g><g><g class="primitive"><text dy=".35em" text-anchor="end" transform="translate(219.54,108.85) rotate(-90,0, 0)">Japan</text></g></g><g><g class="primitive"><text dy=".35em" text-anchor="end" transform="translate(223.46,108.85) rotate(-90,0, 0)">Pakistan</text></g></g><g><g class="primitive"><text dy=".35em" text-anchor="end" transform="translate(227.37,108.85) rotate(-90,0, 0)">Nigeria</text></g></g><g><g class="primitive"><text dy=".35em" text-anchor="end" transform="translate(231.29,108.85) rotate(-90,0, 0)">Brazil</text></g></g><g><g class="primitive"><text dy=".35em" text-anchor="end" transform="translate(235.21,108.85) rotate(-90,0, 0)">Other</text></g></g><g><g class="primitive"><text dy=".35em" text-anchor="end" transform="translate(239.12,108.85) rotate(-90,0, 0)">United States o...</text></g></g><g><g class="primitive"><text dy=".35em" text-anchor="end" transform="translate(243.04,108.85) rotate(-90,0, 0)">India</text></g></g></g><g clip-path="url(#img-b41a8741-5)"><g id="img-b41a8741-6"><g id="img-b41a8741-7" fill="#222831" stroke="#000" stroke-opacity="0" stroke-width=".3" class="guide background" pointer-events="visible"><g id="img-b41a8741-8"><path d="M-113.59,-51.42 L113.59,-51.42 113.59,51.42 -113.59,51.42 z" class="primitive" transform="translate(131.41,56.42)"/></g></g><g id="img-b41a8741-9" stroke="#575757" stroke-dasharray=".5 .5" stroke-width=".2" class="guide ygridlines xfixed"><g id="img-b41a8741-10"><path fill="none" d="M-113.59,0 L113.59,0" class="primitive" transform="translate(131.41,105.85)"/></g><g id="img-b41a8741-11"><path fill="none" d="M-113.59,0 L113.59,0" class="primitive" transform="translate(131.41,81.14)"/></g><g id="img-b41a8741-12"><path fill="none" d="M-113.59,0 L113.59,0" class="primitive" transform="translate(131.41,56.42)"/></g><g id="img-b41a8741-13"><path fill="none" d="M-113.59,0 L113.59,0" class="primitive" transform="translate(131.41,31.71)"/></g><g id="img-b41a8741-14"><path fill="none" d="M-113.59,0 L113.59,0" class="primitive" transform="translate(131.41,7)"/></g></g><g id="img-b41a8741-15" stroke="#575757" stroke-dasharray=".5 .5" stroke-width=".2" class="guide xgridlines yfixed"><g id="img-b41a8741-16"><path fill="none" d="M0,-51.42 L0,51.42" class="primitive" transform="translate(21.74,56.42)"/></g><g id="img-b41a8741-17"><path fill="none" d="M0,-51.42 L0,51.42" class="primitive" transform="translate(25.66,56.42)"/></g><g id="img-b41a8741-18"><path fill="none" d="M0,-51.42 L0,51.42" class="primitive" transform="translate(29.58,56.42)"/></g><g id="img-b41a8741-19"><path fill="none" d="M0,-51.42 L0,51.42" class="primitive" transform="translate(33.49,56.42)"/></g><g id="img-b41a8741-20"><path fill="none" d="M0,-51.42 L0,51.42" class="primitive" transform="translate(37.41,56.42)"/></g><g id="img-b41a8741-21"><path fill="none" d="M0,-51.42 L0,51.42" class="primitive" transform="translate(41.33,56.42)"/></g><g id="img-b41a8741-22"><path fill="none" d="M0,-51.42 L0,51.42" class="primitive" transform="translate(45.24,56.42)"/></g><g id="img-b41a8741-23"><path fill="none" d="M0,-51.42 L0,51.42" class="primitive" transform="translate(49.16,56.42)"/></g><g id="img-b41a8741-24"><path fill="none" d="M0,-51.42 L0,51.42" class="primitive" transform="translate(53.08,56.42)"/></g><g id="img-b41a8741-25"><path fill="none" d="M0,-51.42 L0,51.42" class="primitive" transform="translate(56.99,56.42)"/></g><g id="img-b41a8741-26"><path fill="none" d="M0,-51.42 L0,51.42" class="primitive" transform="translate(60.91,56.42)"/></g><g id="img-b41a8741-27"><path fill="none" d="M0,-51.42 L0,51.42" class="primitive" transform="translate(64.83,56.42)"/></g><g id="img-b41a8741-28"><path fill="none" d="M0,-51.42 L0,51.42" class="primitive" transform="translate(68.74,56.42)"/></g><g id="img-b41a8741-29"><path fill="none" d="M0,-51.42 L0,51.42" class="primitive" transform="translate(72.66,56.42)"/></g><g id="img-b41a8741-30"><path fill="none" d="M0,-51.42 L0,51.42" class="primitive" transform="translate(76.58,56.42)"/></g><g id="img-b41a8741-31"><path fill="none" d="M0,-51.42 L0,51.42" class="primitive" transform="translate(80.49,56.42)"/></g><g id="img-b41a8741-32"><path fill="none" d="M0,-51.42 L0,51.42" class="primitive" transform="translate(84.41,56.42)"/></g><g id="img-b41a8741-33"><path fill="none" d="M0,-51.42 L0,51.42" class="primitive" transform="translate(88.33,56.42)"/></g><g id="img-b41a8741-34"><path fill="none" d="M0,-51.42 L0,51.42" class="primitive" transform="translate(92.24,56.42)"/></g><g id="img-b41a8741-35"><path fill="none" d="M0,-51.42 L0,51.42" class="primitive" transform="translate(96.16,56.42)"/></g><g id="img-b41a8741-36"><path fill="none" d="M0,-51.42 L0,51.42" class="primitive" transform="translate(100.08,56.42)"/></g><g id="img-b41a8741-37"><path fill="none" d="M0,-51.42 L0,51.42" class="primitive" transform="translate(104,56.42)"/></g><g id="img-b41a8741-38"><path fill="none" d="M0,-51.42 L0,51.42" class="primitive" transform="translate(107.91,56.42)"/></g><g id="img-b41a8741-39"><path fill="none" d="M0,-51.42 L0,51.42" class="primitive" transform="translate(111.83,56.42)"/></g><g id="img-b41a8741-40"><path fill="none" d="M0,-51.42 L0,51.42" class="primitive" transform="translate(115.75,56.42)"/></g><g id="img-b41a8741-41"><path fill="none" d="M0,-51.42 L0,51.42" class="primitive" transform="translate(119.66,56.42)"/></g><g id="img-b41a8741-42"><path fill="none" d="M0,-51.42 L0,51.42" class="primitive" transform="translate(123.58,56.42)"/></g><g id="img-b41a8741-43"><path fill="none" d="M0,-51.42 L0,51.42" class="primitive" transform="translate(127.5,56.42)"/></g><g id="img-b41a8741-44"><path fill="none" d="M0,-51.42 L0,51.42" class="primitive" transform="translate(131.41,56.42)"/></g><g id="img-b41a8741-45"><path fill="none" d="M0,-51.42 L0,51.42" class="primitive" transform="translate(135.33,56.42)"/></g><g id="img-b41a8741-46"><path fill="none" d="M0,-51.42 L0,51.42" class="primitive" transform="translate(139.25,56.42)"/></g><g id="img-b41a8741-47"><path fill="none" d="M0,-51.42 L0,51.42" class="primitive" transform="translate(143.16,56.42)"/></g><g id="img-b41a8741-48"><path fill="none" d="M0,-51.42 L0,51.42" class="primitive" transform="translate(147.08,56.42)"/></g><g id="img-b41a8741-49"><path fill="none" d="M0,-51.42 L0,51.42" class="primitive" transform="translate(151,56.42)"/></g><g id="img-b41a8741-50"><path fill="none" d="M0,-51.42 L0,51.42" class="primitive" transform="translate(154.91,56.42)"/></g><g id="img-b41a8741-51"><path fill="none" d="M0,-51.42 L0,51.42" class="primitive" transform="translate(158.83,56.42)"/></g><g id="img-b41a8741-52"><path fill="none" d="M0,-51.42 L0,51.42" class="primitive" transform="translate(162.75,56.42)"/></g><g id="img-b41a8741-53"><path fill="none" d="M0,-51.42 L0,51.42" class="primitive" transform="translate(166.66,56.42)"/></g><g id="img-b41a8741-54"><path fill="none" d="M0,-51.42 L0,51.42" class="primitive" transform="translate(170.58,56.42)"/></g><g id="img-b41a8741-55"><path fill="none" d="M0,-51.42 L0,51.42" class="primitive" transform="translate(174.5,56.42)"/></g><g id="img-b41a8741-56"><path fill="none" d="M0,-51.42 L0,51.42" class="primitive" transform="translate(178.41,56.42)"/></g><g id="img-b41a8741-57"><path fill="none" d="M0,-51.42 L0,51.42" class="primitive" transform="translate(182.33,56.42)"/></g><g id="img-b41a8741-58"><path fill="none" d="M0,-51.42 L0,51.42" class="primitive" transform="translate(186.25,56.42)"/></g><g id="img-b41a8741-59"><path fill="none" d="M0,-51.42 L0,51.42" class="primitive" transform="translate(190.16,56.42)"/></g><g id="img-b41a8741-60"><path fill="none" d="M0,-51.42 L0,51.42" class="primitive" transform="translate(194.08,56.42)"/></g><g id="img-b41a8741-61"><path fill="none" d="M0,-51.42 L0,51.42" class="primitive" transform="translate(198,56.42)"/></g><g id="img-b41a8741-62"><path fill="none" d="M0,-51.42 L0,51.42" class="primitive" transform="translate(201.92,56.42)"/></g><g id="img-b41a8741-63"><path fill="none" d="M0,-51.42 L0,51.42" class="primitive" transform="translate(205.83,56.42)"/></g><g id="img-b41a8741-64"><path fill="none" d="M0,-51.42 L0,51.42" class="primitive" transform="translate(209.75,56.42)"/></g><g id="img-b41a8741-65"><path fill="none" d="M0,-51.42 L0,51.42" class="primitive" transform="translate(213.67,56.42)"/></g><g id="img-b41a8741-66"><path fill="none" d="M0,-51.42 L0,51.42" class="primitive" transform="translate(217.58,56.42)"/></g><g id="img-b41a8741-67"><path fill="none" d="M0,-51.42 L0,51.42" class="primitive" transform="translate(221.5,56.42)"/></g><g id="img-b41a8741-68"><path fill="none" d="M0,-51.42 L0,51.42" class="primitive" transform="translate(225.42,56.42)"/></g><g id="img-b41a8741-69"><path fill="none" d="M0,-51.42 L0,51.42" class="primitive" transform="translate(229.33,56.42)"/></g><g id="img-b41a8741-70"><path fill="none" d="M0,-51.42 L0,51.42" class="primitive" transform="translate(233.25,56.42)"/></g><g id="img-b41a8741-71"><path fill="none" d="M0,-51.42 L0,51.42" class="primitive" transform="translate(237.17,56.42)"/></g><g id="img-b41a8741-72"><path fill="none" d="M0,-51.42 L0,51.42" class="primitive" transform="translate(241.08,56.42)"/></g></g><g id="img-b41a8741-73" class="plotpanel"><metadata><boundingbox value="17.82583333333335mm 5.0mm 227.17416666666668mm 102.84833333333333mm"/><unitbox value="0.5 4.08093206764572 58.0 -4.16186413529144"/></metadata><g id="img-b41a8741-74" class="geometry"><g id="img-b41a8741-75" stroke-width=".3"><g id="img-b41a8741-76" fill="#FE4365" fill-opacity="1" stroke="#B58486" class="color_RGBA{Float32}(0.99607843f0,0.2627451f0,0.39607844f0,1.0f0)"><g id="img-b41a8741-77" class="marker"><g id="img-b41a8741-78" transform="translate(243.04,8.38)"><circle cx="0" cy="0" r=".9" class="primitive"/></g></g></g><g id="img-b41a8741-79" fill="#FE4365" fill-opacity="1" stroke="#B58486" class="color_RGBA{Float32}(0.99607843f0,0.2627451f0,0.39607844f0,1.0f0)"><g id="img-b41a8741-80" class="marker"><g id="img-b41a8741-81" transform="translate(239.12,20.21)"><circle cx="0" cy="0" r=".9" class="primitive"/></g></g></g><g id="img-b41a8741-82" fill="#FE4365" fill-opacity="1" stroke="#B58486" class="color_RGBA{Float32}(0.99607843f0,0.2627451f0,0.39607844f0,1.0f0)"><g id="img-b41a8741-83" class="marker"><g id="img-b41a8741-84" transform="translate(235.21,27.87)"><circle cx="0" cy="0" r=".9" class="primitive"/></g></g></g><g id="img-b41a8741-85" fill="#FE4365" fill-opacity="1" stroke="#B58486" class="color_RGBA{Float32}(0.99607843f0,0.2627451f0,0.39607844f0,1.0f0)"><g id="img-b41a8741-86" class="marker"><g id="img-b41a8741-87" transform="translate(231.29,33.67)"><circle cx="0" cy="0" r=".9" class="primitive"/></g></g></g><g id="img-b41a8741-88" fill="#FE4365" fill-opacity="1" stroke="#B58486" class="color_RGBA{Float32}(0.99607843f0,0.2627451f0,0.39607844f0,1.0f0)"><g id="img-b41a8741-89" class="marker"><g id="img-b41a8741-90" transform="translate(227.37,35.07)"><circle cx="0" cy="0" r=".9" class="primitive"/></g></g></g><g id="img-b41a8741-91" fill="#FE4365" fill-opacity="1" stroke="#B58486" class="color_RGBA{Float32}(0.99607843f0,0.2627451f0,0.39607844f0,1.0f0)"><g id="img-b41a8741-92" class="marker"><g id="img-b41a8741-93" transform="translate(223.46,36.84)"><circle cx="0" cy="0" r=".9" class="primitive"/></g></g></g><g id="img-b41a8741-94" fill="#FE4365" fill-opacity="1" stroke="#B58486" class="color_RGBA{Float32}(0.99607843f0,0.2627451f0,0.39607844f0,1.0f0)"><g id="img-b41a8741-95" class="marker"><g id="img-b41a8741-96" transform="translate(219.54,38.01)"><circle cx="0" cy="0" r=".9" class="primitive"/></g></g></g><g id="img-b41a8741-97" fill="#FE4365" fill-opacity="1" stroke="#B58486" class="color_RGBA{Float32}(0.99607843f0,0.2627451f0,0.39607844f0,1.0f0)"><g id="img-b41a8741-98" class="marker"><g id="img-b41a8741-99" transform="translate(215.62,40.21)"><circle cx="0" cy="0" r=".9" class="primitive"/></g></g></g><g id="img-b41a8741-100" fill="#FE4365" fill-opacity="1" stroke="#B58486" class="color_RGBA{Float32}(0.99607843f0,0.2627451f0,0.39607844f0,1.0f0)"><g id="img-b41a8741-101" class="marker"><g id="img-b41a8741-102" transform="translate(211.71,42.01)"><circle cx="0" cy="0" r=".9" class="primitive"/></g></g></g><g id="img-b41a8741-103" fill="#FE4365" fill-opacity="1" stroke="#B58486" class="color_RGBA{Float32}(0.99607843f0,0.2627451f0,0.39607844f0,1.0f0)"><g id="img-b41a8741-104" class="marker"><g id="img-b41a8741-105" transform="translate(207.79,42.1)"><circle cx="0" cy="0" r=".9" class="primitive"/></g></g></g><g id="img-b41a8741-106" fill="#FE4365" fill-opacity="1" stroke="#B58486" class="color_RGBA{Float32}(0.99607843f0,0.2627451f0,0.39607844f0,1.0f0)"><g id="img-b41a8741-107" class="marker"><g id="img-b41a8741-108" transform="translate(203.87,42.21)"><circle cx="0" cy="0" r=".9" class="primitive"/></g></g></g><g id="img-b41a8741-109" fill="#FE4365" fill-opacity="1" stroke="#B58486" class="color_RGBA{Float32}(0.99607843f0,0.2627451f0,0.39607844f0,1.0f0)"><g id="img-b41a8741-110" class="marker"><g id="img-b41a8741-111" transform="translate(199.96,43.13)"><circle cx="0" cy="0" r=".9" class="primitive"/></g></g></g><g id="img-b41a8741-112" fill="#FE4365" fill-opacity="1" stroke="#B58486" class="color_RGBA{Float32}(0.99607843f0,0.2627451f0,0.39607844f0,1.0f0)"><g id="img-b41a8741-113" class="marker"><g id="img-b41a8741-114" transform="translate(196.04,43.81)"><circle cx="0" cy="0" r=".9" class="primitive"/></g></g></g><g id="img-b41a8741-115" fill="#FE4365" fill-opacity="1" stroke="#B58486" class="color_RGBA{Float32}(0.99607843f0,0.2627451f0,0.39607844f0,1.0f0)"><g id="img-b41a8741-116" class="marker"><g id="img-b41a8741-117" transform="translate(192.12,44.04)"><circle cx="0" cy="0" r=".9" class="primitive"/></g></g></g><g id="img-b41a8741-118" fill="#FE4365" fill-opacity="1" stroke="#B58486" class="color_RGBA{Float32}(0.99607843f0,0.2627451f0,0.39607844f0,1.0f0)"><g id="img-b41a8741-119" class="marker"><g id="img-b41a8741-120" transform="translate(188.21,46.09)"><circle cx="0" cy="0" r=".9" class="primitive"/></g></g></g><g id="img-b41a8741-121" fill="#FE4365" fill-opacity="1" stroke="#B58486" class="color_RGBA{Float32}(0.99607843f0,0.2627451f0,0.39607844f0,1.0f0)"><g id="img-b41a8741-122" class="marker"><g id="img-b41a8741-123" transform="translate(184.29,46.25)"><circle cx="0" cy="0" r=".9" class="primitive"/></g></g></g><g id="img-b41a8741-124" fill="#FE4365" fill-opacity="1" stroke="#B58486" class="color_RGBA{Float32}(0.99607843f0,0.2627451f0,0.39607844f0,1.0f0)"><g id="img-b41a8741-125" class="marker"><g id="img-b41a8741-126" transform="translate(180.37,46.29)"><circle cx="0" cy="0" r=".9" class="primitive"/></g></g></g><g id="img-b41a8741-127" fill="#FE4365" fill-opacity="1" stroke="#B58486" class="color_RGBA{Float32}(0.99607843f0,0.2627451f0,0.39607844f0,1.0f0)"><g id="img-b41a8741-128" class="marker"><g id="img-b41a8741-129" transform="translate(176.46,46.29)"><circle cx="0" cy="0" r=".9" class="primitive"/></g></g></g><g id="img-b41a8741-130" fill="#FE4365" fill-opacity="1" stroke="#B58486" class="color_RGBA{Float32}(0.99607843f0,0.2627451f0,0.39607844f0,1.0f0)"><g id="img-b41a8741-131" class="marker"><g id="img-b41a8741-132" transform="translate(172.54,46.34)"><circle cx="0" cy="0" r=".9" class="primitive"/></g></g></g><g id="img-b41a8741-133" fill="#FE4365" fill-opacity="1" stroke="#B58486" class="color_RGBA{Float32}(0.99607843f0,0.2627451f0,0.39607844f0,1.0f0)"><g id="img-b41a8741-134" class="marker"><g id="img-b41a8741-135" transform="translate(168.62,46.55)"><circle cx="0" cy="0" r=".9" class="primitive"/></g></g></g><g id="img-b41a8741-136" fill="#FE4365" fill-opacity="1" stroke="#B58486" class="color_RGBA{Float32}(0.99607843f0,0.2627451f0,0.39607844f0,1.0f0)"><g id="img-b41a8741-137" class="marker"><g id="img-b41a8741-138" transform="translate(164.71,46.94)"><circle cx="0" cy="0" r=".9" class="primitive"/></g></g></g><g id="img-b41a8741-139" fill="#FE4365" fill-opacity="1" stroke="#B58486" class="color_RGBA{Float32}(0.99607843f0,0.2627451f0,0.39607844f0,1.0f0)"><g id="img-b41a8741-140" class="marker"><g id="img-b41a8741-141" transform="translate(160.79,48.36)"><circle cx="0" cy="0" r=".9" class="primitive"/></g></g></g><g id="img-b41a8741-142" fill="#FE4365" fill-opacity="1" stroke="#B58486" class="color_RGBA{Float32}(0.99607843f0,0.2627451f0,0.39607844f0,1.0f0)"><g id="img-b41a8741-143" class="marker"><g id="img-b41a8741-144" transform="translate(156.87,48.77)"><circle cx="0" cy="0" r=".9" class="primitive"/></g></g></g><g id="img-b41a8741-145" fill="#FE4365" fill-opacity="1" stroke="#B58486" class="color_RGBA{Float32}(0.99607843f0,0.2627451f0,0.39607844f0,1.0f0)"><g id="img-b41a8741-146" class="marker"><g id="img-b41a8741-147" transform="translate(152.96,48.93)"><circle cx="0" cy="0" r=".9" class="primitive"/></g></g></g><g id="img-b41a8741-148" fill="#FE4365" fill-opacity="1" stroke="#B58486" class="color_RGBA{Float32}(0.99607843f0,0.2627451f0,0.39607844f0,1.0f0)"><g id="img-b41a8741-149" class="marker"><g id="img-b41a8741-150" transform="translate(149.04,50)"><circle cx="0" cy="0" r=".9" class="primitive"/></g></g></g><g id="img-b41a8741-151" fill="#FE4365" fill-opacity="1" stroke="#B58486" class="color_RGBA{Float32}(0.99607843f0,0.2627451f0,0.39607844f0,1.0f0)"><g id="img-b41a8741-152" class="marker"><g id="img-b41a8741-153" transform="translate(145.12,50.3)"><circle cx="0" cy="0" r=".9" class="primitive"/></g></g></g><g id="img-b41a8741-154" fill="#FE4365" fill-opacity="1" stroke="#B58486" class="color_RGBA{Float32}(0.99607843f0,0.2627451f0,0.39607844f0,1.0f0)"><g id="img-b41a8741-155" class="marker"><g id="img-b41a8741-156" transform="translate(141.2,52.66)"><circle cx="0" cy="0" r=".9" class="primitive"/></g></g></g><g id="img-b41a8741-157" fill="#FE4365" fill-opacity="1" stroke="#B58486" class="color_RGBA{Float32}(0.99607843f0,0.2627451f0,0.39607844f0,1.0f0)"><g id="img-b41a8741-158" class="marker"><g id="img-b41a8741-159" transform="translate(137.29,53.44)"><circle cx="0" cy="0" r=".9" class="primitive"/></g></g></g><g id="img-b41a8741-160" fill="#FE4365" fill-opacity="1" stroke="#B58486" class="color_RGBA{Float32}(0.99607843f0,0.2627451f0,0.39607844f0,1.0f0)"><g id="img-b41a8741-161" class="marker"><g id="img-b41a8741-162" transform="translate(133.37,54.03)"><circle cx="0" cy="0" r=".9" class="primitive"/></g></g></g><g id="img-b41a8741-163" fill="#FE4365" fill-opacity="1" stroke="#B58486" class="color_RGBA{Float32}(0.99607843f0,0.2627451f0,0.39607844f0,1.0f0)"><g id="img-b41a8741-164" class="marker"><g id="img-b41a8741-165" transform="translate(129.45,54.38)"><circle cx="0" cy="0" r=".9" class="primitive"/></g></g></g><g id="img-b41a8741-166" fill="#FE4365" fill-opacity="1" stroke="#B58486" class="color_RGBA{Float32}(0.99607843f0,0.2627451f0,0.39607844f0,1.0f0)"><g id="img-b41a8741-167" class="marker"><g id="img-b41a8741-168" transform="translate(125.54,54.47)"><circle cx="0" cy="0" r=".9" class="primitive"/></g></g></g><g id="img-b41a8741-169" fill="#FE4365" fill-opacity="1" stroke="#B58486" class="color_RGBA{Float32}(0.99607843f0,0.2627451f0,0.39607844f0,1.0f0)"><g id="img-b41a8741-170" class="marker"><g id="img-b41a8741-171" transform="translate(121.62,54.92)"><circle cx="0" cy="0" r=".9" class="primitive"/></g></g></g><g id="img-b41a8741-172" fill="#FE4365" fill-opacity="1" stroke="#B58486" class="color_RGBA{Float32}(0.99607843f0,0.2627451f0,0.39607844f0,1.0f0)"><g id="img-b41a8741-173" class="marker"><g id="img-b41a8741-174" transform="translate(117.7,55.11)"><circle cx="0" cy="0" r=".9" class="primitive"/></g></g></g><g id="img-b41a8741-175" fill="#FE4365" fill-opacity="1" stroke="#B58486" class="color_RGBA{Float32}(0.99607843f0,0.2627451f0,0.39607844f0,1.0f0)"><g id="img-b41a8741-176" class="marker"><g id="img-b41a8741-177" transform="translate(113.79,55.5)"><circle cx="0" cy="0" r=".9" class="primitive"/></g></g></g><g id="img-b41a8741-178" fill="#FE4365" fill-opacity="1" stroke="#B58486" class="color_RGBA{Float32}(0.99607843f0,0.2627451f0,0.39607844f0,1.0f0)"><g id="img-b41a8741-179" class="marker"><g id="img-b41a8741-180" transform="translate(109.87,55.6)"><circle cx="0" cy="0" r=".9" class="primitive"/></g></g></g><g id="img-b41a8741-181" fill="#FE4365" fill-opacity="1" stroke="#B58486" class="color_RGBA{Float32}(0.99607843f0,0.2627451f0,0.39607844f0,1.0f0)"><g id="img-b41a8741-182" class="marker"><g id="img-b41a8741-183" transform="translate(105.95,55.6)"><circle cx="0" cy="0" r=".9" class="primitive"/></g></g></g><g id="img-b41a8741-184" fill="#FE4365" fill-opacity="1" stroke="#B58486" class="color_RGBA{Float32}(0.99607843f0,0.2627451f0,0.39607844f0,1.0f0)"><g id="img-b41a8741-185" class="marker"><g id="img-b41a8741-186" transform="translate(102.04,55.7)"><circle cx="0" cy="0" r=".9" class="primitive"/></g></g></g><g id="img-b41a8741-187" fill="#FE4365" fill-opacity="1" stroke="#B58486" class="color_RGBA{Float32}(0.99607843f0,0.2627451f0,0.39607844f0,1.0f0)"><g id="img-b41a8741-188" class="marker"><g id="img-b41a8741-189" transform="translate(98.12,56.21)"><circle cx="0" cy="0" r=".9" class="primitive"/></g></g></g><g id="img-b41a8741-190" fill="#FE4365" fill-opacity="1" stroke="#B58486" class="color_RGBA{Float32}(0.99607843f0,0.2627451f0,0.39607844f0,1.0f0)"><g id="img-b41a8741-191" class="marker"><g id="img-b41a8741-192" transform="translate(94.2,56.53)"><circle cx="0" cy="0" r=".9" class="primitive"/></g></g></g><g id="img-b41a8741-193" fill="#FE4365" fill-opacity="1" stroke="#B58486" class="color_RGBA{Float32}(0.99607843f0,0.2627451f0,0.39607844f0,1.0f0)"><g id="img-b41a8741-194" class="marker"><g id="img-b41a8741-195" transform="translate(90.29,56.64)"><circle cx="0" cy="0" r=".9" class="primitive"/></g></g></g><g id="img-b41a8741-196" fill="#FE4365" fill-opacity="1" stroke="#B58486" class="color_RGBA{Float32}(0.99607843f0,0.2627451f0,0.39607844f0,1.0f0)"><g id="img-b41a8741-197" class="marker"><g id="img-b41a8741-198" transform="translate(86.37,57.09)"><circle cx="0" cy="0" r=".9" class="primitive"/></g></g></g><g id="img-b41a8741-199" fill="#FE4365" fill-opacity="1" stroke="#B58486" class="color_RGBA{Float32}(0.99607843f0,0.2627451f0,0.39607844f0,1.0f0)"><g id="img-b41a8741-200" class="marker"><g id="img-b41a8741-201" transform="translate(82.45,57.92)"><circle cx="0" cy="0" r=".9" class="primitive"/></g></g></g><g id="img-b41a8741-202" fill="#FE4365" fill-opacity="1" stroke="#B58486" class="color_RGBA{Float32}(0.99607843f0,0.2627451f0,0.39607844f0,1.0f0)"><g id="img-b41a8741-203" class="marker"><g id="img-b41a8741-204" transform="translate(78.54,58.3)"><circle cx="0" cy="0" r=".9" class="primitive"/></g></g></g><g id="img-b41a8741-205" fill="#FE4365" fill-opacity="1" stroke="#B58486" class="color_RGBA{Float32}(0.99607843f0,0.2627451f0,0.39607844f0,1.0f0)"><g id="img-b41a8741-206" class="marker"><g id="img-b41a8741-207" transform="translate(74.62,58.95)"><circle cx="0" cy="0" r=".9" class="primitive"/></g></g></g><g id="img-b41a8741-208" fill="#FE4365" fill-opacity="1" stroke="#B58486" class="color_RGBA{Float32}(0.99607843f0,0.2627451f0,0.39607844f0,1.0f0)"><g id="img-b41a8741-209" class="marker"><g id="img-b41a8741-210" transform="translate(70.7,59.23)"><circle cx="0" cy="0" r=".9" class="primitive"/></g></g></g><g id="img-b41a8741-211" fill="#FE4365" fill-opacity="1" stroke="#B58486" class="color_RGBA{Float32}(0.99607843f0,0.2627451f0,0.39607844f0,1.0f0)"><g id="img-b41a8741-212" class="marker"><g id="img-b41a8741-213" transform="translate(66.79,59.51)"><circle cx="0" cy="0" r=".9" class="primitive"/></g></g></g><g id="img-b41a8741-214" fill="#FE4365" fill-opacity="1" stroke="#B58486" class="color_RGBA{Float32}(0.99607843f0,0.2627451f0,0.39607844f0,1.0f0)"><g id="img-b41a8741-215" class="marker"><g id="img-b41a8741-216" transform="translate(62.87,59.66)"><circle cx="0" cy="0" r=".9" class="primitive"/></g></g></g><g id="img-b41a8741-217" fill="#FE4365" fill-opacity="1" stroke="#B58486" class="color_RGBA{Float32}(0.99607843f0,0.2627451f0,0.39607844f0,1.0f0)"><g id="img-b41a8741-218" class="marker"><g id="img-b41a8741-219" transform="translate(58.95,60.56)"><circle cx="0" cy="0" r=".9" class="primitive"/></g></g></g><g id="img-b41a8741-220" fill="#FE4365" fill-opacity="1" stroke="#B58486" class="color_RGBA{Float32}(0.99607843f0,0.2627451f0,0.39607844f0,1.0f0)"><g id="img-b41a8741-221" class="marker"><g id="img-b41a8741-222" transform="translate(55.04,60.56)"><circle cx="0" cy="0" r=".9" class="primitive"/></g></g></g><g id="img-b41a8741-223" fill="#FE4365" fill-opacity="1" stroke="#B58486" class="color_RGBA{Float32}(0.99607843f0,0.2627451f0,0.39607844f0,1.0f0)"><g id="img-b41a8741-224" class="marker"><g id="img-b41a8741-225" transform="translate(51.12,61.55)"><circle cx="0" cy="0" r=".9" class="primitive"/></g></g></g><g id="img-b41a8741-226" fill="#FE4365" fill-opacity="1" stroke="#B58486" class="color_RGBA{Float32}(0.99607843f0,0.2627451f0,0.39607844f0,1.0f0)"><g id="img-b41a8741-227" class="marker"><g id="img-b41a8741-228" transform="translate(47.2,62.27)"><circle cx="0" cy="0" r=".9" class="primitive"/></g></g></g><g id="img-b41a8741-229" fill="#FE4365" fill-opacity="1" stroke="#B58486" class="color_RGBA{Float32}(0.99607843f0,0.2627451f0,0.39607844f0,1.0f0)"><g id="img-b41a8741-230" class="marker"><g id="img-b41a8741-231" transform="translate(43.29,63.04)"><circle cx="0" cy="0" r=".9" class="primitive"/></g></g></g><g id="img-b41a8741-232" fill="#FE4365" fill-opacity="1" stroke="#B58486" class="color_RGBA{Float32}(0.99607843f0,0.2627451f0,0.39607844f0,1.0f0)"><g id="img-b41a8741-233" class="marker"><g id="img-b41a8741-234" transform="translate(39.37,63.04)"><circle cx="0" cy="0" r=".9" class="primitive"/></g></g></g><g id="img-b41a8741-235" fill="#FE4365" fill-opacity="1" stroke="#B58486" class="color_RGBA{Float32}(0.99607843f0,0.2627451f0,0.39607844f0,1.0f0)"><g id="img-b41a8741-236" class="marker"><g id="img-b41a8741-237" transform="translate(35.45,63.24)"><circle cx="0" cy="0" r=".9" class="primitive"/></g></g></g><g id="img-b41a8741-238" fill="#FE4365" fill-opacity="1" stroke="#B58486" class="color_RGBA{Float32}(0.99607843f0,0.2627451f0,0.39607844f0,1.0f0)"><g id="img-b41a8741-239" class="marker"><g id="img-b41a8741-240" transform="translate(31.53,63.65)"><circle cx="0" cy="0" r=".9" class="primitive"/></g></g></g><g id="img-b41a8741-241" fill="#FE4365" fill-opacity="1" stroke="#B58486" class="color_RGBA{Float32}(0.99607843f0,0.2627451f0,0.39607844f0,1.0f0)"><g id="img-b41a8741-242" class="marker"><g id="img-b41a8741-243" transform="translate(27.62,63.86)"><circle cx="0" cy="0" r=".9" class="primitive"/></g></g></g><g id="img-b41a8741-244" fill="#FE4365" fill-opacity="1" stroke="#B58486" class="color_RGBA{Float32}(0.99607843f0,0.2627451f0,0.39607844f0,1.0f0)"><g id="img-b41a8741-245" class="marker"><g id="img-b41a8741-246" transform="translate(23.7,64.08)"><circle cx="0" cy="0" r=".9" class="primitive"/></g></g></g><g id="img-b41a8741-247" fill="#FE4365" fill-opacity="1" stroke="#B58486" class="color_RGBA{Float32}(0.99607843f0,0.2627451f0,0.39607844f0,1.0f0)"><g id="img-b41a8741-248" class="marker"><g id="img-b41a8741-249" transform="translate(19.78,65.73)"><circle cx="0" cy="0" r=".9" class="primitive"/></g></g></g></g></g><g id="img-b41a8741-250" class="geometry"><g id="img-b41a8741-251" stroke="#FE4365" stroke-dasharray="none" stroke-width=".3" class="color_RGB{N0f8}(0.996,0.263,0.396)"><g id="img-b41a8741-252"><path fill="none" d="M0,-20.06 L0,20.06" class="primitive" transform="translate(19.78,85.79)"/></g><g id="img-b41a8741-253"><path fill="none" d="M0,-20.88 L0,20.88" class="primitive" transform="translate(23.7,84.96)"/></g><g id="img-b41a8741-254"><path fill="none" d="M0,-20.99 L0,20.99" class="primitive" transform="translate(27.62,84.86)"/></g><g id="img-b41a8741-255"><path fill="none" d="M0,-21.1 L0,21.1" class="primitive" transform="translate(31.53,84.75)"/></g><g id="img-b41a8741-256"><path fill="none" d="M0,-21.31 L0,21.31" class="primitive" transform="translate(35.45,84.54)"/></g><g id="img-b41a8741-257"><path fill="none" d="M0,-21.41 L0,21.41" class="primitive" transform="translate(39.37,84.44)"/></g><g id="img-b41a8741-258"><path fill="none" d="M0,-21.41 L0,21.41" class="primitive" transform="translate(43.29,84.44)"/></g><g id="img-b41a8741-259"><path fill="none" d="M0,-21.79 L0,21.79" class="primitive" transform="translate(47.2,84.06)"/></g><g id="img-b41a8741-260"><path fill="none" d="M0,-22.15 L0,22.15" class="primitive" transform="translate(51.12,83.7)"/></g><g id="img-b41a8741-261"><path fill="none" d="M0,-22.64 L0,22.64" class="primitive" transform="translate(55.04,83.21)"/></g><g id="img-b41a8741-262"><path fill="none" d="M0,-22.64 L0,22.64" class="primitive" transform="translate(58.95,83.21)"/></g><g id="img-b41a8741-263"><path fill="none" d="M0,-23.1 L0,23.1" class="primitive" transform="translate(62.87,82.75)"/></g><g id="img-b41a8741-264"><path fill="none" d="M0,-23.17 L0,23.17" class="primitive" transform="translate(66.79,82.68)"/></g><g id="img-b41a8741-265"><path fill="none" d="M0,-23.31 L0,23.31" class="primitive" transform="translate(70.7,82.54)"/></g><g id="img-b41a8741-266"><path fill="none" d="M0,-23.45 L0,23.45" class="primitive" transform="translate(74.62,82.4)"/></g><g id="img-b41a8741-267"><path fill="none" d="M0,-23.78 L0,23.78" class="primitive" transform="translate(78.54,82.07)"/></g><g id="img-b41a8741-268"><path fill="none" d="M0,-23.96 L0,23.96" class="primitive" transform="translate(82.45,81.88)"/></g><g id="img-b41a8741-269"><path fill="none" d="M0,-24.38 L0,24.38" class="primitive" transform="translate(86.37,81.47)"/></g><g id="img-b41a8741-270"><path fill="none" d="M0,-24.6 L0,24.6" class="primitive" transform="translate(90.29,81.24)"/></g><g id="img-b41a8741-271"><path fill="none" d="M0,-24.66 L0,24.66" class="primitive" transform="translate(94.2,81.19)"/></g><g id="img-b41a8741-272"><path fill="none" d="M0,-24.82 L0,24.82" class="primitive" transform="translate(98.12,81.03)"/></g><g id="img-b41a8741-273"><path fill="none" d="M0,-25.08 L0,25.08" class="primitive" transform="translate(102.04,80.77)"/></g><g id="img-b41a8741-274"><path fill="none" d="M0,-25.13 L0,25.13" class="primitive" transform="translate(105.95,80.72)"/></g><g id="img-b41a8741-275"><path fill="none" d="M0,-25.13 L0,25.13" class="primitive" transform="translate(109.87,80.72)"/></g><g id="img-b41a8741-276"><path fill="none" d="M0,-25.17 L0,25.17" class="primitive" transform="translate(113.79,80.67)"/></g><g id="img-b41a8741-277"><path fill="none" d="M0,-25.37 L0,25.37" class="primitive" transform="translate(117.7,80.48)"/></g><g id="img-b41a8741-278"><path fill="none" d="M0,-25.46 L0,25.46" class="primitive" transform="translate(121.62,80.39)"/></g><g id="img-b41a8741-279"><path fill="none" d="M0,-25.69 L0,25.69" class="primitive" transform="translate(125.54,80.16)"/></g><g id="img-b41a8741-280"><path fill="none" d="M0,-25.73 L0,25.73" class="primitive" transform="translate(129.45,80.11)"/></g><g id="img-b41a8741-281"><path fill="none" d="M0,-25.91 L0,25.91" class="primitive" transform="translate(133.37,79.94)"/></g><g id="img-b41a8741-282"><path fill="none" d="M0,-26.2 L0,26.2" class="primitive" transform="translate(137.29,79.65)"/></g><g id="img-b41a8741-283"><path fill="none" d="M0,-26.59 L0,26.59" class="primitive" transform="translate(141.2,79.25)"/></g><g id="img-b41a8741-284"><path fill="none" d="M0,-27.78 L0,27.78" class="primitive" transform="translate(145.12,78.07)"/></g><g id="img-b41a8741-285"><path fill="none" d="M0,-27.93 L0,27.93" class="primitive" transform="translate(149.04,77.92)"/></g><g id="img-b41a8741-286"><path fill="none" d="M0,-28.46 L0,28.46" class="primitive" transform="translate(152.96,77.39)"/></g><g id="img-b41a8741-287"><path fill="none" d="M0,-28.54 L0,28.54" class="primitive" transform="translate(156.87,77.31)"/></g><g id="img-b41a8741-288"><path fill="none" d="M0,-28.74 L0,28.74" class="primitive" transform="translate(160.79,77.1)"/></g><g id="img-b41a8741-289"><path fill="none" d="M0,-29.45 L0,29.45" class="primitive" transform="translate(164.71,76.39)"/></g><g id="img-b41a8741-290"><path fill="none" d="M0,-29.65 L0,29.65" class="primitive" transform="translate(168.62,76.2)"/></g><g id="img-b41a8741-291"><path fill="none" d="M0,-29.76 L0,29.76" class="primitive" transform="translate(172.54,76.09)"/></g><g id="img-b41a8741-292"><path fill="none" d="M0,-29.78 L0,29.78" class="primitive" transform="translate(176.46,76.07)"/></g><g id="img-b41a8741-293"><path fill="none" d="M0,-29.78 L0,29.78" class="primitive" transform="translate(180.37,76.07)"/></g><g id="img-b41a8741-294"><path fill="none" d="M0,-29.8 L0,29.8" class="primitive" transform="translate(184.29,76.05)"/></g><g id="img-b41a8741-295"><path fill="none" d="M0,-29.88 L0,29.88" class="primitive" transform="translate(188.21,75.97)"/></g><g id="img-b41a8741-296"><path fill="none" d="M0,-30.9 L0,30.9" class="primitive" transform="translate(192.12,74.95)"/></g><g id="img-b41a8741-297"><path fill="none" d="M0,-31.02 L0,31.02" class="primitive" transform="translate(196.04,74.83)"/></g><g id="img-b41a8741-298"><path fill="none" d="M0,-31.36 L0,31.36" class="primitive" transform="translate(199.96,74.49)"/></g><g id="img-b41a8741-299"><path fill="none" d="M0,-31.82 L0,31.82" class="primitive" transform="translate(203.87,74.03)"/></g><g id="img-b41a8741-300"><path fill="none" d="M0,-31.88 L0,31.88" class="primitive" transform="translate(207.79,73.97)"/></g><g id="img-b41a8741-301"><path fill="none" d="M0,-31.92 L0,31.92" class="primitive" transform="translate(211.71,73.93)"/></g><g id="img-b41a8741-302"><path fill="none" d="M0,-32.82 L0,32.82" class="primitive" transform="translate(215.62,73.03)"/></g><g id="img-b41a8741-303"><path fill="none" d="M0,-33.92 L0,33.92" class="primitive" transform="translate(219.54,71.93)"/></g><g id="img-b41a8741-304"><path fill="none" d="M0,-34.5 L0,34.5" class="primitive" transform="translate(223.46,71.35)"/></g><g id="img-b41a8741-305"><path fill="none" d="M0,-35.39 L0,35.39" class="primitive" transform="translate(227.37,70.46)"/></g><g id="img-b41a8741-306"><path fill="none" d="M0,-36.09 L0,36.09" class="primitive" transform="translate(231.29,69.76)"/></g><g id="img-b41a8741-307"><path fill="none" d="M0,-38.99 L0,38.99" class="primitive" transform="translate(235.21,66.86)"/></g><g id="img-b41a8741-308"><path fill="none" d="M0,-42.82 L0,42.82" class="primitive" transform="translate(239.12,63.03)"/></g><g id="img-b41a8741-309"><path fill="none" d="M0,-48.73 L0,48.73" class="primitive" transform="translate(243.04,57.12)"/></g></g></g></g></g></g><g id="img-b41a8741-310" fill="#A1A1A1" class="guide ylabels" font-family="'PT Sans Caption','Helvetica Neue','Helvetica',sans-serif" font-size="2.82"><g id="img-b41a8741-311"><g class="primitive"><text dy=".35em" text-anchor="end" transform="translate(16.83,105.85)">10<tspan dy="-.4em" font-size="83%">0</tspan></text></g></g><g id="img-b41a8741-312"><g class="primitive"><text dy=".35em" text-anchor="end" transform="translate(16.83,81.14)">10<tspan dy="-.4em" font-size="83%">1</tspan></text></g></g><g id="img-b41a8741-313"><g class="primitive"><text dy=".35em" text-anchor="end" transform="translate(16.83,56.42)">10<tspan dy="-.4em" font-size="83%">2</tspan></text></g></g><g id="img-b41a8741-314"><g class="primitive"><text dy=".35em" text-anchor="end" transform="translate(16.83,31.71)">10<tspan dy="-.4em" font-size="83%">3</tspan></text></g></g><g id="img-b41a8741-315"><g class="primitive"><text dy=".35em" text-anchor="end" transform="translate(16.83,7)">10<tspan dy="-.4em" font-size="83%">4</tspan></text></g></g></g><g id="img-b41a8741-316" fill="#A1A1A1" stroke="#000" stroke-opacity="0" font-family="'PT Sans','Helvetica Neue','Helvetica',sans-serif" font-size="3.88"><g id="img-b41a8741-317"><g class="primitive"><text dy=".35em" text-anchor="end" transform="translate(8.81,56.42)">y</text></g></g></g></g><defs><clipPath id="img-b41a8741-5"><path d="M17.83,5 L245,5 245,107.85 17.83,107.85"/></clipPath></defs></svg>