<svg xmlns="http://www.w3.org/2000/svg" xmlns:gadfly="http://www.gadflyjl.org/ns" xmlns:xlink="http://www.w3.org/1999/xlink" width="250mm" height="150mm" fill="#000" stroke="none" stroke-width=".3" font-size="3.88" version="1.2" viewBox="0 0 250 150"><defs><marker id="arrow" markerHeight="7" markerUnits="strokeWidth" markerWidth="15" orient="auto" refX="5" refY="3.5"><path fill="context-stroke" stroke="context-stroke" d="M0,0 L15,3.5 L0,7 z"/></marker></defs><g id="img-a4ca87e7-1" fill="#222831" stroke="#000" stroke-opacity="0"><g><path d="M-125,-75 L125,-75 125,75 -125,75 z" class="primitive" transform="translate(125,75)"/></g></g><g id="img-a4ca87e7-2" class="plotroot yscalable"><g id="img-a4ca87e7-3" fill="#A1A1A1" stroke="#000" stroke-opacity="0" font-family="'PT Sans','Helvetica Neue','Helvetica',sans-serif" font-size="3.88"><g><g class="primitive"><text dy=".6em" text-anchor="middle" transform="translate(131.48,138.39)">Ages of survey respondents</text></g></g></g><g id="img-a4ca87e7-4" fill="#A1A1A1" class="guide xlabels" font-family="'PT Sans Caption','Helvetica Neue','Helvetica',sans-serif" font-size="2.82"><g><g class="primitive"><text dy=".6em" text-anchor="middle" transform="translate(28.28,131.72)">18-21</text></g></g><g><g class="primitive"><text dy=".6em" text-anchor="middle" transform="translate(48.92,131.72)">22-24</text></g></g><g><g class="primitive"><text dy=".6em" text-anchor="middle" transform="translate(69.56,131.72)">25-29</text></g></g><g><g class="primitive"><text dy=".6em" text-anchor="middle" transform="translate(90.2,131.72)">30-34</text></g></g><g><g class="primitive"><text dy=".6em" text-anchor="middle" transform="translate(110.84,131.72)">35-39</text></g></g><g><g class="primitive"><text dy=".6em" text-anchor="middle" transform="translate(131.48,131.72)">40-44</text></g></g><g><g class="primitive"><text dy=".6em" text-anchor="middle" transform="translate(152.12,131.72)">45-49</text></g></g><g><g class="primitive"><text dy=".6em" text-anchor="middle" transform="translate(172.76,131.72)">50-54</text></g></g><g><g class="primitive"><text dy=".6em" text-anchor="middle" transform="translate(193.4,131.72)">55-59</text></g></g><g><g class="primitive"><text dy=".6em" text-anchor="middle" transform="translate(214.04,131.72)">60-69</text></g></g><g><g class="primitive"><text dy=".6em" text-anchor="middle" transform="translate(234.68,131.72)">70+</text></g></g></g><g clip-path="url(#img-a4ca87e7-5)"><g id="img-a4ca87e7-6"><g id="img-a4ca87e7-7" fill="#222831" stroke="#000" stroke-opacity="0" stroke-width=".3" class="guide background" pointer-events="visible"><g id="img-a4ca87e7-8"><path d="M-113.52,-62.86 L113.52,-62.86 113.52,62.86 -113.52,62.86 z" class="primitive" transform="translate(131.48,67.86)"/></g></g><g id="img-a4ca87e7-9" stroke="#575757" stroke-dasharray=".5 .5" stroke-width=".2" class="guide ygridlines xfixed"><g id="img-a4ca87e7-10"><path fill="none" d="M-113.52,0 L113.52,0" class="primitive" transform="translate(131.48,128.71)"/></g><g id="img-a4ca87e7-11"><path fill="none" d="M-113.52,0 L113.52,0" class="primitive" transform="translate(131.48,98.29)"/></g><g id="img-a4ca87e7-12"><path fill="none" d="M-113.52,0 L113.52,0" class="primitive" transform="translate(131.48,67.86)"/></g><g id="img-a4ca87e7-13"><path fill="none" d="M-113.52,0 L113.52,0" class="primitive" transform="translate(131.48,37.43)"/></g><g id="img-a4ca87e7-14"><path fill="none" d="M-113.52,0 L113.52,0" class="primitive" transform="translate(131.48,7)"/></g></g><g id="img-a4ca87e7-15" stroke="#575757" stroke-dasharray=".5 .5" stroke-width=".2" class="guide xgridlines yfixed"><g id="img-a4ca87e7-16"><path fill="none" d="M0,-62.86 L0,62.86" class="primitive" transform="translate(38.6,67.86)"/></g><g id="img-a4ca87e7-17"><path fill="none" d="M0,-62.86 L0,62.86" class="primitive" transform="translate(59.24,67.86)"/></g><g id="img-a4ca87e7-18"><path fill="none" d="M0,-62.86 L0,62.86" class="primitive" transform="translate(79.88,67.86)"/></g><g id="img-a4ca87e7-19"><path fill="none" d="M0,-62.86 L0,62.86" class="primitive" transform="translate(100.52,67.86)"/></g><g id="img-a4ca87e7-20"><path fill="none" d="M0,-62.86 L0,62.86" class="primitive" transform="translate(121.16,67.86)"/></g><g id="img-a4ca87e7-21"><path fill="none" d="M0,-62.86 L0,62.86" class="primitive" transform="translate(141.8,67.86)"/></g><g id="img-a4ca87e7-22"><path fill="none" d="M0,-62.86 L0,62.86" class="primitive" transform="translate(162.44,67.86)"/></g><g id="img-a4ca87e7-23"><path fill="none" d="M0,-62.86 L0,62.86" class="primitive" transform="translate(183.08,67.86)"/></g><g id="img-a4ca87e7-24"><path fill="none" d="M0,-62.86 L0,62.86" class="primitive" transform="translate(203.72,67.86)"/></g><g id="img-a4ca87e7-25"><path fill="none" d="M0,-62.86 L0,62.86" class="primitive" transform="translate(224.36,67.86)"/></g></g><g id="img-a4ca87e7-26" class="plotpanel"><metadata><boundingbox value="17.958333333333343mm 5.0mm 227.04166666666666mm 125.715mm"/><unitbox value="0.5 20.32863656903422 11.0 -20.65727313806844"/></metadata><g id="img-a4ca87e7-27" stroke-width=".3" shape-rendering="crispEdges"><g id="img-a4ca87e7-28" fill="#FE4365" fill-opacity="1" stroke="#000" stroke-opacity="0" class="geometry"><g id="img-a4ca87e7-29"><path d="M-9.32,-57.81 L9.32,-57.81 9.32,57.81 -9.32,57.81 z" class="primitive" transform="translate(28.28,70.91)"/></g><g id="img-a4ca87e7-30"><path d="M-9.32,-54.31 L9.32,-54.31 9.32,54.31 -9.32,54.31 z" class="primitive" transform="translate(48.92,74.41)"/></g><g id="img-a4ca87e7-31"><path d="M-9.32,-56.71 L9.32,-56.71 9.32,56.71 -9.32,56.71 z" class="primitive" transform="translate(69.56,72.01)"/></g><g id="img-a4ca87e7-32"><path d="M-9.32,-37.69 L9.32,-37.69 9.32,37.69 -9.32,37.69 z" class="primitive" transform="translate(90.2,91.03)"/></g><g id="img-a4ca87e7-33"><path d="M-9.32,-29.84 L9.32,-29.84 9.32,29.84 -9.32,29.84 z" class="primitive" transform="translate(110.84,98.88)"/></g><g id="img-a4ca87e7-34"><path d="M-9.32,-24.43 L9.32,-24.43 9.32,24.43 -9.32,24.43 z" class="primitive" transform="translate(131.48,104.28)"/></g><g id="img-a4ca87e7-35"><path d="M-9.32,-15.89 L9.32,-15.89 9.32,15.89 -9.32,15.89 z" class="primitive" transform="translate(152.12,112.83)"/></g><g id="img-a4ca87e7-36"><path d="M-9.32,-11.59 L9.32,-11.59 9.32,11.59 -9.32,11.59 z" class="primitive" transform="translate(172.76,117.13)"/></g><g id="img-a4ca87e7-37"><path d="M-9.32,-7.75 L9.32,-7.75 9.32,7.75 -9.32,7.75 z" class="primitive" transform="translate(193.4,120.97)"/></g><g id="img-a4ca87e7-38"><path d="M-9.32,-6.67 L9.32,-6.67 9.32,6.67 -9.32,6.67 z" class="primitive" transform="translate(214.04,122.05)"/></g><g id="img-a4ca87e7-39"><path d="M-9.32,-1.61 L9.32,-1.61 9.32,1.61 -9.32,1.61 z" class="primitive" transform="translate(234.68,127.1)"/></g></g></g></g></g></g><g id="img-a4ca87e7-40" fill="#A1A1A1" class="guide ylabels" font-family="'PT Sans Caption','Helvetica Neue','Helvetica',sans-serif" font-size="2.82"><g id="img-a4ca87e7-41"><g class="primitive"><text dy=".35em" text-anchor="end" transform="translate(16.96,128.71)">0</text></g></g><g id="img-a4ca87e7-42"><g class="primitive"><text dy=".35em" text-anchor="end" transform="translate(16.96,98.29)">5</text></g></g><g id="img-a4ca87e7-43"><g class="primitive"><text dy=".35em" text-anchor="end" transform="translate(16.96,67.86)">10</text></g></g><g id="img-a4ca87e7-44"><g class="primitive"><text dy=".35em" text-anchor="end" transform="translate(16.96,37.43)">15</text></g></g><g id="img-a4ca87e7-45"><g class="primitive"><text dy=".35em" text-anchor="end" transform="translate(16.96,7)">20</text></g></g></g><g id="img-a4ca87e7-46" fill="#A1A1A1" stroke="#000" stroke-opacity="0" font-family="'PT Sans','Helvetica Neue','Helvetica',sans-serif" font-size="3.88"><g id="img-a4ca87e7-47"><g class="primitive"><text dy=".35em" text-anchor="middle" transform="translate(8.81,65.86) rotate(-90,0, 2)">% distribution of the survey respondents</text></g></g></g></g><defs><clipPath id="img-a4ca87e7-5"><path d="M17.96,5 L245,5 245,130.72 17.96,130.72"/></clipPath></defs></svg>